<svg id="Layer_1" data-name="Layer 1" xmlns="http://www.w3.org/2000/svg" viewBox="0 0 969.74 450.09"><title>giftxchange-logo</title><path d="M444.23,20.52l95,10.43L428,226.19q22.61,40.55,48.67,83.13t40.55,65.18l14.49,22-97.33,18q-41.72-68.36-63.73-108.91L299.39,427.8l-86.9-15.64,106.6-184.82L222.34,48.91l104.28-4.06q31.85,72.44,47.5,102.54Q415.84,75,444.23,20.52Z" fill="#624549"/><path d="M54.55,398.33q-14-10.54-14-29.71a46.82,46.82,0,0,1,5.65-22.48,48,48,0,0,1,15.39-17.21A44,44,0,0,1,83,321.25q11.94-1,19.32,4.27t7.38,15.06q0,7.55-3.46,12.24a17,17,0,0,0-7.69-5.29,23.41,23.41,0,0,0-10.21-1.31,22.24,22.24,0,0,0-15.39,7.63q-6,6.79-6,16.86t5.81,15.82q5.81,5.78,14.61,5,11-1,18.84-11.39t11.94-29.94l15.71-70.8-1.26.11a65.66,65.66,0,0,1-20.57,20,60.73,60.73,0,0,1-26.55,8.61q-18.21,1.59-32-6.94t-21.2-25.94Q24.87,257.86,24.87,234A140.26,140.26,0,0,1,40,169.68a130.38,130.38,0,0,1,41.46-48.39,116.75,116.75,0,0,1,58.11-21.41q26.7-2.34,42.25,7.92t15.55,30.37q0,13.5-6.6,22.25a23.39,23.39,0,0,1-17.28,9.68,24.25,24.25,0,0,1-11.15-1.54,20.29,20.29,0,0,1-8.63-6.47q5.66-4.26,9.58-12.93A41.45,41.45,0,0,0,167.16,132q0-9.42-5.49-14.13t-15.55-3.82q-18.23,1.59-35.18,19.26T83.61,178a153.66,153.66,0,0,0-10.37,55.56q0,23.55,7.54,35.3t21.68,10.52q17-1.48,30-20.53t20.89-54l37.07-2.93L167.48,309.45q-10.06,47.69-28.43,71.28T91.46,406.88Q68.53,408.89,54.55,398.33Z" fill="#eebd85"/><path d="M397.35,276.51q-8.12-6.92-8.12-23.15,0-13.67,5.45-30.58a79.92,79.92,0,0,1,17.43-29.94q12-13,30.39-14.64,11.88-1,16.93,3.67t5.05,12.63q0,6.93-3,10.95a10.2,10.2,0,0,1-7.52,4.42,11.61,11.61,0,0,1-6.93-1.77,36.55,36.55,0,0,0,2.37-11.89,10.39,10.39,0,0,0-1.38-5.82,4.19,4.19,0,0,0-4.16-1.81q-5.94.51-11.88,10.74a99,99,0,0,0-9.71,24.41A100.33,100.33,0,0,0,418.54,249q0,9.7,3.37,12.87t10.89,2.52a35.46,35.46,0,0,0,18.32-6.56q7.62-5.61,16.73-16.51l6.73-.59q-22,38.56-54.45,41.4Q405.46,283.42,397.35,276.51Z" fill="#eebd85"/><path d="M335.33,252.92a30.88,30.88,0,0,1-7.13,13.2c-3.3,3.53-6.86,5.45-10.69,5.79q-4.35.38-6.24-1.14t-1.88-5.48a25.62,25.62,0,0,1,.79-6.4l12.48-60.5,12.08-1.06,1.58-8.06-11.88,1L332,154q-17.62-5.38-29-7.76a80.11,80.11,0,0,0-23.47-1.31,39.65,39.65,0,0,0-22.08,9.26q-10,8.19-14,27.55l-15.8,76.58,13.73-1.2-1.92,5.78c-4.94,14.86-11.45,25.57-19.34,31.9l-.43,2.09c-2.4,1-4.64,1.89-6.75,2.8a50.3,50.3,0,0,1-8.71,4c-1.07.55-2.1,1.09-3.06,1.61a34.72,34.72,0,0,0-11.38,9.81,23.75,23.75,0,0,0-4.36,14.44,17.62,17.62,0,0,0,7,14.73,22.53,22.53,0,0,0,16.34,4.61,39.71,39.71,0,0,0,22.08-9.25q10-8.2,14-27.56l22.57-108.91,26.74-2.34-11.69,56.67a70.37,70.37,0,0,0-1.58,13q0,11.88,5.84,17.31t15.35,4.6q11.28-1,22.77-9.62t18.81-30.65Zm-119.4,62.33q-1.78,8.28-5,12.22t-6.74,4.25a7.61,7.61,0,0,1-5.54-1.59,5.4,5.4,0,0,1-2.38-4.25,16.37,16.37,0,0,1,5.75-12.68q5.75-5.16,16.23-9.64Zm80-122.44L269,195.16l4.35-21.57q1.78-9.06,5.55-12.76a12.92,12.92,0,0,1,7.92-4.06,47.21,47.21,0,0,1,7.62.23,44.2,44.2,0,0,1,8.62,1.52Z" fill="#eebd85"/><path d="M178.73,297.32q-5.83-5.43-5.84-17.31a71.24,71.24,0,0,1,1.58-13l13.47-64.75,28.52-2.49L202.2,268.33a25.3,25.3,0,0,0-.79,6.41c0,2.64.62,4.47,1.88,5.48s3.33,1.39,6.23,1.14q5.74-.51,10.7-5.79a31,31,0,0,0,7.13-13.2l8.31-.73q-7.32,22-18.81,30.66t-22.77,9.62Q184.57,302.75,178.73,297.32Z" fill="#eebd85"/><path d="M196.46,186.26a13.8,13.8,0,0,1-4.56-10.69A16.8,16.8,0,0,1,196.46,164a16.42,16.42,0,0,1,11.08-5.62,14.34,14.34,0,0,1,15.85,14.46,16.29,16.29,0,0,1-4.66,11.49,17,17,0,0,1-11.19,5.54A13.92,13.92,0,0,1,196.46,186.26Z" fill="#eebd85"/><path d="M808.73,267.71c.33-1.08.65-2.24.94-3.47a38.72,38.72,0,0,0-5.57,3.87Z" fill="#eebd85"/><path d="M212.89,310.44a43.57,43.57,0,0,0-8.31,5.64,12.53,12.53,0,0,0-3.41,4.78l9.38-.82a42.56,42.56,0,0,0,1.47-5.3Z" fill="#eebd85"/><path d="M933.87,246.76l-86,7.53-1.23,6c-.29,1.43-.62,2.82-1,4.18l88.22-7.72a5.56,5.56,0,0,0,5-5.44A4.51,4.51,0,0,0,933.87,246.76Z" fill="#eebd85"/><path d="M186.64,313c.23-.31.47-.6.71-.9l-8.48.75a5.56,5.56,0,0,0-5,5.43,4.52,4.52,0,0,0,5,4.57l3.41-.3A25.92,25.92,0,0,1,186.64,313Z" fill="#eebd85"/><path d="M250,306.59l-1.25,6c-.29,1.44-.62,2.82-1,4.18l15.89-1.4,6.08-10.53Z" fill="#eebd85"/><path d="M468.13,287.51q2.83,4.74,5.72,9.5l308.66-27a28.41,28.41,0,0,1,6.92-10.6Z" fill="#eebd85"/><path d="M567.85,232.58q-3.57,9.22-7.13,13.79a13,13,0,0,1-9.51,5.09q-4.35.39-6.14-1.64c-1.18-1.35-1.78-3.34-1.78-6a47.1,47.1,0,0,1,1.29-9.32q1.29-6,2.87-12.23,2.56-10.33,4-17.48a68.66,68.66,0,0,0,1.39-12.89q0-11.29-5.94-16.31t-16-4.15q-13.27,1.17-23.17,13.12l10.69-50.84L489,140.27l-20.3,97,13.1-1.15-3.78,6.63a116.68,116.68,0,0,1-14.82,20.78l-2.92,13.93,28.52-2.49L502.3,210.2a43.2,43.2,0,0,1,6.34-13.73q4-5.39,9.11-5.84,7.13-.63,7.13,9.47a58.68,58.68,0,0,1-1.39,11q-1.38,6.87-3,13.93c-.27,1-.76,3.1-1.48,6.47s-1.43,6.82-2.08,10.37a51.9,51.9,0,0,0-1,9.5c0,6.33,1.88,11.49,5.64,15.44s9.67,5.59,17.72,4.89q10.29-.9,19.9-9.17t16.93-30.69Z" fill="#eebd85"/><path d="M672,223.47a43,43,0,0,1-6.43,14q-4.07,5.5-9.6,6-8.13.7-8.12-7.81a25.3,25.3,0,0,1,.79-6.41l14.25-68.57-28.51,2.5-2.18,10.68v-1.39a7.71,7.71,0,0,0-4-7q-4-2.43-12.08-1.72a42.15,42.15,0,0,0-27.62,13.6,79.55,79.55,0,0,0-17.43,28.86,103.34,103.34,0,0,0-5.31,22.48l16.05-1.4L580,233.1c-3.21,9.8-6.71,17.61-10.58,23.57a18.91,18.91,0,0,0,3.4,4.39q7.53,7.06,18.82,6.08a30.25,30.25,0,0,0,16.73-6.52,62.91,62.91,0,0,0,12.77-14.28q1,8.82,6,13t13.37,3.49q10.89-1,21.68-9.52t18.12-30.6Zm-51.09,4.47a27.11,27.11,0,0,1-6.63,13.35q-4.86,5.09-9.8,5.51a9,9,0,0,1-7-2.16q-2.88-2.5-2.87-12.42T598.14,209a80.4,80.4,0,0,1,9.9-23q6.35-9.76,14.26-10.46,4.16-.36,6.14,1.94a7.38,7.38,0,0,1,2,4.87Z" fill="#eebd85"/><path d="M772,214.72q-3.56,9.22-7.13,13.79a13,13,0,0,1-9.5,5.09c-2.91.25-5-.29-6.14-1.64s-1.78-3.34-1.78-6a46.85,46.85,0,0,1,1.28-9.32q1.29-6,2.88-12.23,2.57-10.34,4-17.48A68.67,68.67,0,0,0,757,174.06q0-11.3-5.94-16.32t-16-4.14q-13.26,1.17-23.17,13.12L714,156.23l-28.51,2.5-12.63,60.65,13.2-1.16L684.11,224c-5.06,15.24-11.25,25.71-18.89,32l-.74,3.54L693,257.08l13.47-64.75a42.92,42.92,0,0,1,6.33-13.72q4-5.38,9.11-5.84,7.14-.63,7.13,9.47a58.62,58.62,0,0,1-1.38,11q-1.39,6.85-3,13.93-.4,1.42-1.49,6.46T721.11,224a52.8,52.8,0,0,0-1,9.5q0,9.49,5.64,15.44t17.73,4.89q10.29-.9,19.9-9.17T780.32,214Z" fill="#eebd85"/><path d="M872.4,205.94q-4,12.83-9.71,19.66a39.51,39.51,0,0,1-15.24,10.84l19.6-93.6-28.52,2.5-2.17,10.48v-1.19a7.75,7.75,0,0,0-4-7q-4-2.42-12.08-1.71-16.05,1.4-27.63,13.6a79.71,79.71,0,0,0-17.42,28.85A102.4,102.4,0,0,0,770,210.88l16-1.4-1.88,5.75c-3.2,9.81-6.7,17.62-10.58,23.58A19.16,19.16,0,0,0,777,243.2q7.51,7.06,18.81,6.08,13.66-1.2,23.76-13L817.15,247q-14.07,5.78-23.17,13.41t-9.11,18.92q0,9.3,6.34,13.7t15.84,3.56a38.89,38.89,0,0,0,22-9.15q9.71-8.07,13.66-27.63l3-14.52a54.31,54.31,0,0,0,20.6-13q9.11-9,14.45-27.11Zm-58.42,57q-1.79,8.67-5,13.5t-6.54,5.13a5.88,5.88,0,0,1-5-1.55,6.1,6.1,0,0,1-1.78-4.4q0-9.71,19.41-18.53Zm10.49-50.82A23.86,23.86,0,0,1,817.94,224q-4.76,4.58-9.31,5a9,9,0,0,1-7-2.16c-1.91-1.68-2.87-5.81-2.87-12.42a91,91,0,0,1,3.57-23.18,80,80,0,0,1,9.9-23.05q6.33-9.75,14.25-10.45c2.78-.24,4.82.4,6.14,1.94a7.15,7.15,0,0,1,2,4.67Z" fill="#eebd85"/><path d="M921.7,190.63a53.06,53.06,0,0,0,16.83-16.42,38.14,38.14,0,0,0,6.34-21q0-19-21.78-17.11-18.62,1.64-30.7,14.67A78.21,78.21,0,0,0,875,180.76a115.34,115.34,0,0,0-4.76,21.35l16-1.4-1.66,5.63c-2.8,9.48-6.42,17.29-10.81,23.33a19,19,0,0,0,4,4.81q8.12,6.92,22.57,5.65,28.92-2.53,34.26-32.31a54.1,54.1,0,0,1-11.48,8.53,30.12,30.12,0,0,1-11.88,4q-12.29,1.08-12.28-15.36,0-1.58.39-6A58.65,58.65,0,0,0,921.7,190.63Zm-10.79-30.34q6.83-13.17,13.76-13.78,5-.44,5,7.69a34,34,0,0,1-4.06,15.9,40.8,40.8,0,0,1-10.69,13.11,27.28,27.28,0,0,1-14.16,6.19A113.81,113.81,0,0,1,910.91,160.29Z" fill="#eebd85"/><path d="M226.87,142.29a4.34,4.34,0,0,1-1.14-3.12,11,11,0,0,1,.2-1.92q.19-1.08.42-2.1c.15-.67.25-1.11.3-1.3.21-.95.41-1.89.6-2.81a11.65,11.65,0,0,0,.28-2.23c0-1.36-.48-2-1.44-1.91a2.56,2.56,0,0,0-1.84,1.18,8.79,8.79,0,0,0-1.28,2.77l-2.72,13.08-5.76.5,2.92-14.05a4.29,4.29,0,0,0,.12-1c0-1.18-.4-1.73-1.2-1.66a2.71,2.71,0,0,0-1.94,1.19,8.39,8.39,0,0,0-1.3,2.82l-2.72,13.07-5.76.51,4.24-20.37,5.76-.51-.44,2.12a7,7,0,0,1,4.88-2.71q3.52-.3,4.12,3.08c1.47-2.39,3.32-3.69,5.56-3.88a4.27,4.27,0,0,1,3.24.83,4.11,4.11,0,0,1,1.2,3.3,13.51,13.51,0,0,1-.28,2.6c-.19,1-.45,2.14-.8,3.53-.21.85-.41,1.67-.58,2.47a9.86,9.86,0,0,0-.26,1.89,1.8,1.8,0,0,0,.36,1.21,1.42,1.42,0,0,0,1.24.33,2.64,2.64,0,0,0,1.92-1,11.41,11.41,0,0,0,1.44-2.79l1.68-.14c-1,3-2.13,5.08-3.42,6.2a7.09,7.09,0,0,1-4,1.85A4.2,4.2,0,0,1,226.87,142.29Z" fill="#eebd85"/><path d="M239.15,151.06a3.57,3.57,0,0,1-1.42-3,4.85,4.85,0,0,1,.88-3,6.91,6.91,0,0,1,2.28-2,34.53,34.53,0,0,1,3.76-1.69l.4-1.79a7,7,0,0,1-4.88,2.75,3.86,3.86,0,0,1-3.1-.93,4.57,4.57,0,0,1-1.18-3.5,14.63,14.63,0,0,1,.32-2.63l2.72-13.08,5.76-.5-2.88,13.85a4.29,4.29,0,0,0-.12,1c0,1.18.4,1.73,1.2,1.66a2.72,2.72,0,0,0,1.92-1.11,7.75,7.75,0,0,0,1.28-2.69l2.72-13.08,5.8-.51-4.88,23.63c-.53,2.61-1.47,4.46-2.82,5.57a8.1,8.1,0,0,1-4.46,1.87A4.57,4.57,0,0,1,239.15,151.06Zm3.74-3.41a6,6,0,0,0,1-2.47l.48-2.4a11.49,11.49,0,0,0-3.28,2,3.36,3.36,0,0,0-1.16,2.58,1.07,1.07,0,0,0,.48.85,1.53,1.53,0,0,0,1.12.33A2,2,0,0,0,242.89,147.65Z" fill="#eebd85"/></svg>